<?xml version="1.0" encoding="iso-8859-1"?>
<!-- Generator: Adobe Illustrator 19.0.0, SVG Export Plug-In . SVG Version: 6.00 Build 0)  -->
<svg version="1.1" id="Layer_1" xmlns="http://www.w3.org/2000/svg" xmlns:xlink="http://www.w3.org/1999/xlink" x="0px" y="0px"
	 viewBox="0 0 512 512" style="enable-background:new 0 0 512 512;" xml:space="preserve">
<g>
	<g>
		<path d="M210.945,160.362l-11.81,0.802c-9.13,0.597-17.322,4.744-23.056,11.656c-5.683,6.86-8.209,15.581-7.134,24.558
			l0.956,7.765c1.707,14.079,11.537,23.534,24.49,23.534c4.455,0,8.96-1.126,13.43-3.379l10.257-5.188
			c15.548-7.816,27.272-23.278,27.272-35.975C245.35,169.731,230.264,159.15,210.945,160.362z M210.417,204.886l-10.257,5.188
			c-2.013,1.007-4.01,1.536-5.768,1.536c-5.888,0-7.219-5.956-7.543-8.533l-0.956-7.765c-0.529-4.267,0.666-8.397,3.328-11.605
			c2.714-3.259,6.639-5.222,11.059-5.512l13.789-0.87c8.806,0,14.216,3.977,14.233,6.826
			C228.302,188.929,221.339,199.391,210.417,204.886z"/>
	</g>
</g>
<g>
	<g>
		<path d="M339.06,172.82c-5.734-6.912-13.926-11.059-23.022-11.656l-11.827-0.802c-19.387-1.195-34.439,9.369-34.439,23.773
			c0,12.68,11.759,28.159,27.306,35.975l10.291,5.205c4.437,2.236,8.943,3.362,13.414,3.362c12.936,0,22.783-9.454,24.472-23.534
			l0.939-7.782C347.286,188.401,344.743,179.681,339.06,172.82z M329.282,195.312l-0.939,7.782c-0.307,2.56-1.655,8.516-7.543,8.516
			c-1.758,0-3.737-0.529-5.734-1.536l-10.291-5.205c-10.939-5.495-17.919-15.956-17.919-20.735c0-2.85,5.41-6.809,14.233-6.809
			l13.84,0.87c4.386,0.29,8.311,2.252,11.025,5.512C328.616,186.915,329.794,191.045,329.282,195.312z"/>
	</g>
</g>
<g>
	<g>
		<path d="M255.966,197.855c-19.455,0-24.268,41.761-24.268,47.7c0,2.253,0,9.148,5.256,13.585c3.67,3.123,8.09,3.516,11.52,3.516
			l7.475-0.222l7.475,0.222c14.591,0,16.776-10.718,16.81-17.101C280.234,239.616,275.421,197.855,255.966,197.855z
			 M263.151,245.555l-2.662-0.068c-1.434-0.068-2.953-0.119-4.54-0.119c-1.604,0-3.123,0.068-4.54,0.102h-2.662
			c0.017-8.158,3.823-22.528,7.202-28.586c3.379,6.076,7.202,20.496,7.202,28.654C263.151,245.555,263.151,245.555,263.151,245.555z
			"/>
	</g>
</g>
<g>
	<g>
		<path d="M261.086,13.986h-10.308c-77.139,0-139.891,57.257-139.891,128.73v64.288c0,25.299,12.018,45.88,32.016,56.053
			c3.286,1.672,6.779,3.072,10.479,4.156l14.08,4.601l9.573,2.375l7.35,1.823v10.939c0,20.189,19.759,34.269,48.027,34.269h46.908
			c11.419,0,45.62,0,47.225-30.77c0.112-0.751,0.168-1.519,0.168-2.304v-12.134l8.269-2.068l9.476-2.37l12.966-3.355
			c4.135-1.212,8.041-2.82,11.69-4.78c19.775-10.621,31.999-31.612,31.999-56.436v-65.38
			C401.113,71.242,338.293,13.986,261.086,13.986z M366.997,207.022c0,7.019-1.821,13.244-5.106,18.156
			c-3.311,4.952-8.112,8.569-14.041,10.309l-12.841,3.08l-0.366,0.088l-31.496,7.85c-8.117,2.031-13.751,8.772-13.751,16.469v23.722
			c0,0.017,0,0.017,0,0.034c-2.873,0.324-7.202,0.324-10.094,0.324h-46.908c-5.001,0-8.844-0.973-10.71-1.792V262.94
			c0-7.697-5.635-14.455-13.77-16.469l-30.694-7.611l-0.201-0.062l-14.03-4.334c-6.204-1.817-10.307-5.218-13.006-9.175
			c-4.093-6.002-4.948-13.286-4.948-18.284v-65.38c0-51.557,47.444-93.505,105.759-93.505h10.308
			c58.4,0,105.895,41.948,105.895,94.597V207.022z"/>
	</g>
</g>
<g>
	<g>
		<path d="M357.424,266.219l-12.966,3.355l-9.476,2.37v25.219c0,22.561-59.049,51.352-71.149,52.939l-14.643,0.034
			c-12.902-1.621-72.156-30.429-72.156-52.973v-24.975l-9.573-2.375l-14.08-4.601c-3.699-1.084-7.193-2.484-10.479-4.156v36.107
			c0,51.028,87.993,87.071,105.537,87.071h15.394c17.51,0,105.281-36.044,105.281-87.071v-35.724
			C365.464,263.399,361.558,265.007,357.424,266.219z"/>
	</g>
</g>
<g>
	<g>
		<path d="M218.677,345.597c-4.727-8.14-15.137-10.956-23.312-6.246l-142.69,82.344c-8.157,4.71-10.956,15.137-6.246,23.312
			c3.157,5.461,8.891,8.533,14.796,8.533c2.901,0,5.836-0.734,8.516-2.287l142.69-82.344
			C220.588,364.199,223.387,353.772,218.677,345.597z"/>
	</g>
</g>
<g>
	<g>
		<path d="M65.918,420.073c-9.079-2.611-18.5,2.645-21.111,11.707l-12.765,44.474c-2.594,9.045,2.645,18.5,11.707,21.094
			c1.57,0.444,3.157,0.666,4.71,0.666c7.407,0,14.25-4.864,16.401-12.356l12.765-44.491
			C80.219,432.122,74.98,422.667,65.918,420.073z"/>
	</g>
</g>
<g>
	<g>
		<path d="M64.945,419.834l-44.133-9.881c-9.216-2.065-18.329,3.737-20.394,12.919c-2.065,9.199,3.72,18.329,12.919,20.377
			l44.133,9.881c1.263,0.273,2.526,0.41,3.755,0.41c7.816,0,14.864-5.393,16.639-13.329
			C79.929,431.012,74.144,421.882,64.945,419.834z"/>
	</g>
</g>
<g>
	<g>
		<path d="M465.572,209.29c-4.727-8.174-15.189-10.956-23.312-6.246L348.106,257.4c-8.157,4.71-10.956,15.137-6.246,23.312
			c3.157,5.478,8.891,8.533,14.796,8.533c2.901,0,5.836-0.734,8.516-2.287l94.154-54.356
			C467.483,227.892,470.282,217.465,465.572,209.29z"/>
	</g>
</g>
<g>
	<g>
		<path d="M468.268,156.931c-9.199-2.646-18.517,2.662-21.111,11.707l-12.765,44.474c-2.594,9.045,2.645,18.5,11.69,21.111
			c1.57,0.444,3.157,0.666,4.71,0.666c7.424,0,14.234-4.881,16.401-12.373l12.765-44.474
			C482.552,168.997,477.313,159.542,468.268,156.931z"/>
	</g>
</g>
<g>
	<g>
		<path d="M498.645,211.047l-44.15-9.881c-9.301-1.963-18.329,3.754-20.377,12.936c-2.065,9.182,3.72,18.312,12.919,20.377
			l44.15,9.881c1.263,0.273,2.526,0.41,3.755,0.41c7.817,0,14.865-5.392,16.622-13.346
			C513.629,222.242,507.844,213.112,498.645,211.047z"/>
	</g>
</g>
<g>
	<g>
		<path d="M459.326,421.695L316.67,339.351c-8.157-4.727-18.585-1.912-23.312,6.246c-4.728,8.157-1.929,18.602,6.246,23.312
			l142.655,82.344c2.679,1.553,5.615,2.287,8.516,2.287c5.888,0,11.622-3.072,14.797-8.533
			C470.3,436.85,467.501,426.405,459.326,421.695z"/>
	</g>
</g>
<g>
	<g>
		<path d="M479.958,476.254l-12.765-44.474c-2.594-9.096-12.1-14.284-21.094-11.707c-9.079,2.594-14.301,12.049-11.707,21.094
			l12.765,44.474c2.151,7.509,8.96,12.373,16.401,12.373c1.536,0,3.123-0.204,4.693-0.666
			C477.33,494.754,482.552,485.299,479.958,476.254z"/>
	</g>
</g>
<g>
	<g>
		<path d="M511.582,422.872c-2.048-9.182-11.093-14.984-20.377-12.919l-44.15,9.881c-9.199,2.048-14.984,11.178-12.919,20.377
			c1.774,7.936,8.823,13.329,16.639,13.329c1.229,0,2.475-0.136,3.738-0.41l44.15-9.881
			C507.862,441.201,513.647,432.071,511.582,422.872z"/>
	</g>
</g>
<g>
	<g>
		<path d="M163.911,257.4L69.74,203.044c-8.191-4.727-18.602-1.911-23.312,6.246c-4.71,8.157-1.912,18.602,6.246,23.312
			l94.171,54.356c2.696,1.553,5.632,2.287,8.516,2.287c5.905,0,11.639-3.072,14.796-8.533
			C174.867,272.555,172.069,262.11,163.911,257.4z"/>
	</g>
</g>
<g>
	<g>
		<path d="M77.625,213.112L64.86,168.638c-2.611-9.062-12.049-14.267-21.128-11.69c-9.045,2.594-14.284,12.049-11.69,21.094
			l12.765,44.474c2.151,7.492,8.977,12.373,16.401,12.373c1.553,0,3.14-0.205,4.71-0.666
			C74.98,231.612,80.219,222.174,77.625,213.112z"/>
	</g>
</g>
<g>
	<g>
		<path d="M77.865,214.085c-2.065-9.199-11.178-14.984-20.394-12.919l-44.133,9.881c-9.182,2.065-14.984,11.195-12.919,20.394
			c1.774,7.936,8.823,13.329,16.639,13.329c1.245,0,2.491-0.136,3.755-0.41l44.133-9.881
			C74.128,232.414,79.93,223.284,77.865,214.085z"/>
	</g>
</g>
<g>
</g>
<g>
</g>
<g>
</g>
<g>
</g>
<g>
</g>
<g>
</g>
<g>
</g>
<g>
</g>
<g>
</g>
<g>
</g>
<g>
</g>
<g>
</g>
<g>
</g>
<g>
</g>
<g>
</g>
</svg>
