<?xml version="1.0" encoding="iso-8859-1"?>
<!-- Generator: Adobe Illustrator 19.0.0, SVG Export Plug-In . SVG Version: 6.00 Build 0)  -->
<svg version="1.1" id="Layer_1" xmlns="http://www.w3.org/2000/svg" xmlns:xlink="http://www.w3.org/1999/xlink" x="0px" y="0px"
	 viewBox="0 0 512.001 512.001" style="enable-background:new 0 0 512.001 512.001;" xml:space="preserve">
<polygon style="fill:#FF8E00;" points="271.671,0 255.998,0 248.161,44.146 255.998,88.293 271.671,88.293 "/>
<path style="fill:#B8002A;" d="M399.439,440.178V271.793c0-79.221-64.221-143.442-143.442-143.442l0,0l-20.915,332.742
	L399.439,440.178z"/>
<rect x="240.329" style="fill:#FFBA00;" width="15.674" height="88.296"/>
<path style="fill:#DE0436;" d="M255.998,159.7v-31.348l0,0c-79.221,0-143.442,64.221-143.442,143.442v168.385l143.442,20.915
	V191.047c44.523,0,80.746,36.223,80.746,80.746h31.348C368.09,209.985,317.806,159.7,255.998,159.7z"/>
<rect x="395.673" y="64.349" transform="matrix(-0.7071 -0.7071 0.7071 -0.7071 625.4944 476.0814)" style="fill:#FF8E00;" width="31.347" height="88.295"/>
<g>
	
		<rect x="56.503" y="92.824" transform="matrix(-0.7071 -0.7071 0.7071 -0.7071 95.1025 256.3877)" style="fill:#FFBA00;" width="88.295" height="31.347"/>
	
		<rect x="127.782" y="45.204" transform="matrix(-0.3827 -0.9239 0.9239 -0.3827 181.4833 243.0181)" style="fill:#FFBA00;" width="88.298" height="31.348"/>
</g>
<g>
	
		<rect x="324.393" y="16.725" transform="matrix(-0.9239 -0.3827 0.3827 -0.9239 630.9525 247.2545)" style="fill:#FF8E00;" width="31.348" height="88.298"/>
	
		<rect x="443.304" y="135.633" transform="matrix(-0.3827 -0.9239 0.9239 -0.3827 468.5278 672.6226)" style="fill:#FF8E00;" width="31.348" height="88.298"/>
</g>
<rect x="8.874" y="164.099" transform="matrix(-0.9239 -0.3827 0.3827 -0.9239 33.2121 366.1534)" style="fill:#FFBA00;" width="88.298" height="31.348"/>
<path style="fill:#FF8E00;" d="M460.04,479.014c0-21.448-17.388-38.836-38.836-38.836h-21.766H255.998l-20.915,38.394L255.998,512
	h204.044v-32.986H460.04z"/>
<path style="fill:#FFBA00;" d="M112.555,440.178H90.788c-21.448,0-38.836,17.388-38.836,38.836v32.987h204.044v-71.822H112.555
	V440.178z"/>
<g>
</g>
<g>
</g>
<g>
</g>
<g>
</g>
<g>
</g>
<g>
</g>
<g>
</g>
<g>
</g>
<g>
</g>
<g>
</g>
<g>
</g>
<g>
</g>
<g>
</g>
<g>
</g>
<g>
</g>
</svg>
